<?xml version="1.0" encoding="utf-8"?>
<!-- Generator: Adobe Illustrator 19.0.0, SVG Export Plug-In . SVG Version: 6.00 Build 0)  -->
<svg version="1.1" id="Layer_1" xmlns:sketch="http://www.bohemiancoding.com/sketch/ns"
	 xmlns="http://www.w3.org/2000/svg" xmlns:xlink="http://www.w3.org/1999/xlink" x="0px" y="0px" width="20px" height="32px"
	 viewBox="-299 381 20 32" style="enable-background:new -299 381 20 32;" xml:space="preserve">
<title></title>
<g id="Icons_with_numbers">
	<g id="Group" transform="translate(-288.000000, -192.000000)">
		<path id="Oval_208" d="M-11,585c0-0.3,0-0.7,0-1c0-6.1,4.5-11,10-11s10,4.9,10,11c0,0.3,0,0.7,0,1h0c0,6-10,20-10,20
			S-11,591-11,585L-11,585z M-1,587c2.2,0,4-1.8,4-4s-1.8-4-4-4s-4,1.8-4,4S-3.2,587-1,587z"/>
	</g>
</g>
</svg>
